<svg xmlns="http://www.w3.org/2000/svg" xmlns:xlink="http://www.w3.org/1999/xlink" width="200" zoomAndPan="magnify" viewBox="0 0 150 37.5" height="50" preserveAspectRatio="xMidYMid meet" version="1.0"><defs><g/><clipPath id="6811d7c364"><path d="M 30.945312 3.167969 L 58.328125 3.167969 L 58.328125 33.515625 L 30.945312 33.515625 Z M 30.945312 3.167969 " clip-rule="nonzero"/></clipPath><clipPath id="6892376804"><path d="M 40 3.167969 L 56 3.167969 L 56 6 L 40 6 Z M 40 3.167969 " clip-rule="nonzero"/></clipPath><clipPath id="40a1241e47"><path d="M 30.945312 3.167969 L 58.328125 3.167969 L 58.328125 33.515625 L 30.945312 33.515625 Z M 30.945312 3.167969 " clip-rule="nonzero"/></clipPath></defs><g clip-path="url(#6811d7c364)"><path fill="#000000" d="M 31.203125 25.121094 C 32.609375 25.378906 33.660156 27.316406 34.402344 28.363281 C 35.363281 29.714844 36.347656 31.105469 37.539062 32.273438 C 37.558594 32.40625 37.652344 32.53125 37.832031 32.535156 C 40.121094 32.597656 42.375 32.996094 44.652344 33.195312 C 47.046875 33.40625 49.535156 33.351562 51.9375 33.230469 C 51.964844 33.230469 51.988281 33.226562 52.015625 33.21875 C 52.070312 33.246094 52.140625 33.25 52.222656 33.222656 C 53.867188 32.617188 55.078125 31.324219 56.660156 30.609375 C 56.703125 30.585938 56.738281 30.5625 56.761719 30.53125 C 56.851562 30.46875 56.917969 30.363281 56.898438 30.230469 C 57.300781 29.824219 57.675781 29.398438 58.074219 28.992188 C 58.207031 28.953125 58.324219 28.839844 58.324219 28.675781 C 58.335938 28.617188 58.328125 28.554688 58.300781 28.5 C 57.644531 24.222656 57.867188 19.894531 57.875 15.589844 C 57.875 15.554688 57.867188 15.527344 57.859375 15.5 C 57.878906 15.335938 57.785156 15.152344 57.570312 15.144531 C 55.589844 15.046875 53.617188 15.230469 51.636719 15.199219 C 49.777344 15.171875 47.953125 14.738281 46.089844 14.746094 C 46.035156 14.722656 45.972656 14.722656 45.910156 14.75 C 45.796875 14.765625 45.71875 14.832031 45.679688 14.921875 C 45.152344 15.339844 44.707031 15.847656 44.332031 16.410156 C 44.273438 16.464844 44.238281 16.542969 44.226562 16.632812 C 44.210938 16.722656 44.199219 16.8125 44.183594 16.902344 C 44.175781 16.976562 44.1875 17.039062 44.214844 17.09375 C 44.109375 18.59375 43.980469 20.097656 43.96875 21.601562 C 43.96875 21.636719 43.976562 21.667969 43.984375 21.695312 C 43.957031 21.859375 44.054688 22.050781 44.273438 22.050781 C 46.1875 22.070312 48.09375 22.3125 50.007812 22.300781 C 50 23.425781 49.984375 24.546875 49.96875 25.671875 C 49.054688 25.707031 48.140625 25.742188 47.226562 25.730469 C 45.8125 25.714844 44.457031 25.414062 43.046875 25.574219 C 41.175781 24.511719 40.722656 22.039062 38.761719 21.035156 C 39.046875 18.507812 39.015625 15.964844 39.039062 13.425781 C 39.839844 12.847656 40.65625 12.296875 41.515625 11.8125 C 46.175781 11.8125 50.757812 11.769531 55.363281 11.863281 C 55.5 11.867188 55.589844 11.796875 55.636719 11.703125 C 55.671875 11.679688 55.703125 11.644531 55.71875 11.601562 C 56.164062 11.121094 56.722656 10.753906 56.972656 10.148438 C 57.085938 10.121094 57.175781 10.027344 57.164062 9.875 C 57 7.792969 56.683594 5.742188 56.089844 3.734375 C 56.046875 3.589844 55.933594 3.527344 55.816406 3.523438 C 55.789062 3.507812 55.757812 3.492188 55.722656 3.488281 C 54.695312 3.273438 53.667969 3.351562 52.625 3.394531 C 51.378906 3.445312 50.125 3.464844 48.878906 3.464844 L 41.132812 3.464844 C 41.027344 3.386719 40.878906 3.375 40.761719 3.503906 C 40.308594 4.003906 39.898438 4.542969 39.441406 5.042969 C 39.417969 5.070312 39.402344 5.09375 39.390625 5.121094 C 39.324219 5.121094 39.253906 5.140625 39.1875 5.191406 C 37.570312 6.46875 36.15625 7.933594 34.730469 9.410156 C 33.582031 10.597656 32.03125 12.015625 31.46875 13.601562 C 31.195312 14.390625 31.289062 15.417969 31.273438 16.261719 C 31.257812 17.261719 31.265625 18.257812 31.203125 19.257812 C 31.097656 21.066406 30.988281 22.875 30.980469 24.683594 C 30.980469 24.71875 30.988281 24.753906 30.996094 24.78125 C 30.957031 24.925781 31.011719 25.085938 31.203125 25.121094 " fill-opacity="1" fill-rule="nonzero"/></g><path fill="#1c61a5" d="M 57.261719 16.1875 C 57.242188 20.308594 57.082031 24.433594 57.695312 28.519531 C 57.386719 28.832031 57.089844 29.15625 56.789062 29.472656 C 56.242188 25.398438 56.449219 21.28125 56.453125 17.179688 C 56.453125 17.148438 56.449219 17.117188 56.441406 17.089844 C 56.441406 17.066406 56.445312 17.042969 56.441406 17.019531 C 56.679688 16.714844 56.992188 16.46875 57.261719 16.1875 " fill-opacity="1" fill-rule="nonzero"/><path fill="#1c61a5" d="M 51.636719 15.796875 C 53.390625 15.855469 55.136719 15.691406 56.890625 15.71875 C 56.585938 16.074219 56.195312 16.355469 55.910156 16.726562 C 54.011719 16.652344 52.113281 16.820312 50.214844 16.792969 C 48.503906 16.765625 46.828125 16.394531 45.121094 16.339844 C 45.402344 15.96875 45.726562 15.625 46.101562 15.34375 C 47.957031 15.335938 49.78125 15.734375 51.636719 15.796875 " fill-opacity="1" fill-rule="nonzero"/><g clip-path="url(#6892376804)"><path fill="#1c61a5" d="M 55.34375 4.039062 C 55.105469 4.445312 54.699219 4.746094 54.390625 5.113281 C 54.363281 5.097656 54.335938 5.085938 54.300781 5.078125 C 53.273438 4.863281 52.246094 4.941406 51.203125 4.984375 C 49.957031 5.035156 48.707031 5.054688 47.457031 5.054688 C 45.03125 5.054688 42.664062 5.054688 40.230469 5.054688 C 40.511719 4.722656 40.785156 4.386719 41.074219 4.058594 C 41.074219 4.058594 41.078125 4.058594 41.078125 4.058594 C 41.078125 4.058594 46 4.058594 48.488281 4.058594 C 49.640625 4.058594 50.796875 4.019531 51.957031 4.007812 C 53.089844 3.992188 54.21875 3.851562 55.34375 4.039062 " fill-opacity="1" fill-rule="nonzero"/></g><path fill="#1c61a5" d="M 49.964844 26.277344 C 49.960938 26.589844 49.960938 26.90625 49.957031 27.222656 C 48.574219 27.246094 47.191406 27.339844 45.804688 27.324219 C 44.664062 27.308594 43.566406 27.109375 42.441406 27.121094 C 42.828125 26.859375 43.171875 26.546875 43.476562 26.1875 C 43.492188 26.167969 43.507812 26.144531 43.519531 26.125 C 44.878906 26.03125 46.234375 26.316406 47.59375 26.335938 C 48.386719 26.34375 49.175781 26.308594 49.964844 26.277344 " fill-opacity="1" fill-rule="nonzero"/><path fill="#1c61a5" d="M 42.742188 26.09375 C 42.375 26.464844 41.949219 26.785156 41.453125 26.980469 C 41.425781 26.992188 41.40625 27.003906 41.382812 27.019531 C 39.765625 25.929688 39.25 23.746094 37.527344 22.730469 C 37.816406 22.3125 38.152344 21.9375 38.523438 21.589844 C 40.40625 22.609375 40.871094 25.035156 42.742188 26.09375 " fill-opacity="1" fill-rule="nonzero"/><path fill="#1c61a5" d="M 37.625 14.472656 C 37.894531 14.273438 38.160156 14.074219 38.425781 13.875 C 38.410156 16.292969 38.421875 18.710938 38.144531 21.117188 C 37.886719 21.355469 37.640625 21.613281 37.417969 21.878906 C 37.636719 19.414062 37.589844 16.941406 37.625 14.472656 " fill-opacity="1" fill-rule="nonzero"/><path fill="#1c61a5" d="M 56.53125 9.617188 C 56.503906 9.648438 56.476562 9.691406 56.464844 9.746094 C 56.355469 10.195312 56.019531 10.503906 55.683594 10.804688 C 55.515625 9.054688 55.230469 7.328125 54.753906 5.632812 C 55.015625 5.222656 55.386719 4.925781 55.6875 4.558594 C 56.125 6.21875 56.382812 7.90625 56.53125 9.617188 " fill-opacity="1" fill-rule="nonzero"/><path fill="#50a7ef" d="M 32.921875 19.046875 C 32.941406 16.558594 32.847656 14.546875 32.757812 14.546875 C 32.660156 14.546875 32.597656 16.5625 32.578125 19.042969 C 32.546875 21.523438 32.449219 23.53125 32.554688 23.542969 C 32.601562 23.542969 32.675781 23.042969 32.757812 22.234375 C 32.855469 21.421875 32.886719 20.292969 32.921875 19.046875 Z M 37.933594 30.546875 C 37.957031 30.539062 37.929688 30.433594 37.871094 30.253906 C 37.839844 30.164062 37.800781 30.054688 37.753906 29.929688 C 37.707031 29.804688 37.652344 29.660156 37.570312 29.511719 C 37.273438 28.886719 36.773438 28.085938 36.152344 27.25 C 35.523438 26.425781 34.917969 25.707031 34.480469 25.1875 C 34.042969 24.671875 33.761719 24.359375 33.722656 24.386719 C 33.683594 24.410156 33.898438 24.777344 34.289062 25.332031 C 34.679688 25.890625 35.25 26.628906 35.875 27.449219 C 36.488281 28.273438 37.015625 29.042969 37.355469 29.613281 C 37.449219 29.75 37.515625 29.886719 37.578125 30.007812 C 37.644531 30.125 37.699219 30.226562 37.75 30.308594 C 37.847656 30.472656 37.910156 30.558594 37.933594 30.546875 Z M 37.972656 8.792969 C 38.339844 8.261719 38.527344 7.910156 38.492188 7.886719 C 38.449219 7.859375 38.191406 8.160156 37.78125 8.648438 C 37.367188 9.128906 36.777344 9.78125 36.097656 10.480469 C 35.414062 11.171875 34.785156 11.792969 34.339844 12.257812 C 33.894531 12.71875 33.636719 13.023438 33.671875 13.054688 C 33.703125 13.089844 34.019531 12.847656 34.507812 12.429688 C 34.996094 12.007812 35.65625 11.410156 36.34375 10.710938 C 37.03125 10.007812 37.601562 9.316406 37.972656 8.792969 Z M 50.617188 31.988281 C 50.617188 31.941406 50.023438 31.902344 49.070312 31.871094 C 48.113281 31.835938 46.792969 31.808594 45.339844 31.730469 C 43.890625 31.636719 42.582031 31.484375 41.648438 31.328125 C 41.414062 31.304688 41.199219 31.253906 41.015625 31.21875 C 40.828125 31.179688 40.667969 31.152344 40.535156 31.132812 C 40.269531 31.085938 40.121094 31.074219 40.113281 31.09375 C 40.109375 31.117188 40.246094 31.175781 40.503906 31.257812 C 40.628906 31.296875 40.785156 31.347656 40.96875 31.398438 C 41.152344 31.449219 41.355469 31.519531 41.59375 31.5625 C 42.535156 31.78125 43.855469 31.972656 45.320312 32.0625 C 46.785156 32.144531 48.109375 32.136719 49.070312 32.105469 C 50.023438 32.078125 50.617188 32.035156 50.617188 31.988281 Z M 53.460938 10.371094 C 53.460938 10.277344 50.789062 10.191406 47.496094 10.179688 C 44.203125 10.164062 41.535156 10.230469 41.535156 10.324219 C 41.535156 10.414062 44.203125 10.5 47.496094 10.515625 C 50.789062 10.527344 53.457031 10.464844 53.460938 10.371094 Z M 54.878906 27.636719 C 54.910156 26.882812 54.855469 25.835938 54.792969 24.683594 C 54.675781 23.535156 54.566406 22.496094 54.410156 21.753906 C 54.273438 21.007812 54.167969 20.550781 54.121094 20.558594 C 54.011719 20.578125 54.257812 22.425781 54.449219 24.707031 C 54.613281 26.988281 54.671875 28.859375 54.777344 28.859375 C 54.824219 28.859375 54.859375 28.390625 54.878906 27.636719 Z M 56.265625 30.054688 C 56.257812 30.082031 56.253906 30.109375 56.253906 30.140625 C 54.769531 30.84375 53.613281 32.074219 52.058594 32.644531 C 52.058594 32.648438 52.054688 32.648438 52.050781 32.652344 C 52.015625 32.640625 51.980469 32.632812 51.9375 32.636719 C 49.652344 32.75 47.316406 32.769531 45.03125 32.628906 C 42.699219 32.484375 40.402344 32.039062 38.066406 31.949219 C 38.058594 31.945312 38.054688 31.9375 38.046875 31.929688 C 36.605469 30.542969 35.503906 28.839844 34.339844 27.238281 C 33.664062 26.3125 32.785156 24.957031 31.589844 24.601562 C 31.613281 20.996094 32.027344 17.410156 32.046875 13.808594 C 32.855469 12.207031 34.136719 10.894531 35.382812 9.601562 C 36.722656 8.214844 38.0625 6.847656 39.582031 5.644531 C 39.605469 5.648438 39.632812 5.652344 39.65625 5.652344 C 39.65625 5.652344 44.578125 5.652344 47.066406 5.652344 C 48.21875 5.652344 49.378906 5.609375 50.535156 5.597656 C 51.742188 5.582031 52.9375 5.417969 54.128906 5.664062 C 54.660156 7.496094 54.953125 9.363281 55.117188 11.261719 C 50.589844 11.171875 46.0625 11.214844 41.484375 11.21875 C 41.480469 11.21875 41.472656 11.21875 41.46875 11.21875 C 41.410156 11.210938 41.347656 11.222656 41.28125 11.257812 C 40.253906 11.828125 39.382812 12.578125 38.390625 13.164062 C 37.996094 13.394531 37.636719 13.71875 37.269531 13.988281 C 37.230469 14.019531 37.203125 14.054688 37.179688 14.09375 C 37.089844 14.136719 37.019531 14.21875 37.019531 14.347656 C 36.976562 17.167969 37.046875 19.988281 36.714844 22.796875 C 36.695312 22.957031 36.796875 23.050781 36.917969 23.074219 C 36.933594 23.082031 36.949219 23.09375 36.964844 23.105469 C 39.023438 24.105469 39.421875 26.75 41.480469 27.777344 C 41.613281 27.839844 41.734375 27.808594 41.820312 27.738281 C 43.273438 27.578125 44.71875 27.90625 46.175781 27.925781 C 47.535156 27.941406 48.902344 27.824219 50.261719 27.816406 C 50.496094 27.8125 50.589844 27.601562 50.542969 27.433594 C 50.558594 27.398438 50.566406 27.359375 50.566406 27.320312 C 50.570312 25.53125 50.613281 23.738281 50.617188 21.953125 C 50.617188 21.6875 50.332031 21.605469 50.152344 21.703125 C 48.289062 21.730469 46.441406 21.503906 44.582031 21.460938 C 44.601562 19.949219 44.734375 18.441406 44.832031 16.9375 C 46.636719 16.949219 48.410156 17.324219 50.214844 17.386719 C 52.089844 17.449219 53.96875 17.257812 55.84375 17.320312 C 55.832031 21.574219 55.640625 25.835938 56.265625 30.054688 " fill-opacity="1" fill-rule="nonzero"/><g clip-path="url(#40a1241e47)"><path fill="#000000" d="M 38.425781 13.875 C 38.160156 14.074219 37.894531 14.273438 37.625 14.472656 C 37.589844 16.941406 37.636719 19.414062 37.417969 21.878906 C 37.640625 21.613281 37.886719 21.355469 38.144531 21.117188 C 38.421875 18.710938 38.410156 16.292969 38.425781 13.875 Z M 41.453125 26.980469 C 41.949219 26.785156 42.375 26.464844 42.742188 26.09375 C 40.871094 25.035156 40.40625 22.609375 38.523438 21.589844 C 38.152344 21.9375 37.816406 22.3125 37.527344 22.730469 C 39.25 23.746094 39.765625 25.929688 41.382812 27.019531 C 41.40625 27.003906 41.425781 26.992188 41.453125 26.980469 Z M 49.957031 27.222656 C 49.960938 26.90625 49.960938 26.589844 49.964844 26.277344 C 49.175781 26.308594 48.386719 26.34375 47.59375 26.335938 C 46.234375 26.316406 44.878906 26.03125 43.519531 26.125 C 43.507812 26.144531 43.492188 26.167969 43.476562 26.1875 C 43.171875 26.546875 42.828125 26.859375 42.441406 27.121094 C 43.566406 27.109375 44.664062 27.308594 45.804688 27.324219 C 47.191406 27.339844 48.574219 27.246094 49.957031 27.222656 Z M 54.390625 5.113281 C 54.699219 4.746094 55.105469 4.445312 55.34375 4.039062 C 54.21875 3.851562 53.089844 3.992188 51.957031 4.007812 C 50.796875 4.019531 49.640625 4.058594 48.488281 4.058594 C 46 4.058594 41.078125 4.058594 41.078125 4.058594 C 41.078125 4.058594 41.074219 4.058594 41.074219 4.058594 C 40.785156 4.386719 40.511719 4.722656 40.230469 5.054688 C 42.664062 5.054688 45.03125 5.054688 47.457031 5.054688 C 48.707031 5.054688 49.957031 5.035156 51.203125 4.984375 C 52.246094 4.941406 53.273438 4.863281 54.300781 5.078125 C 54.335938 5.085938 54.363281 5.097656 54.390625 5.113281 Z M 56.253906 30.140625 C 56.253906 30.109375 56.257812 30.082031 56.265625 30.054688 C 55.640625 25.835938 55.832031 21.574219 55.84375 17.320312 C 53.96875 17.257812 52.089844 17.449219 50.214844 17.386719 C 48.410156 17.324219 46.636719 16.949219 44.832031 16.9375 C 44.734375 18.441406 44.601562 19.949219 44.582031 21.460938 C 46.441406 21.503906 48.289062 21.730469 50.152344 21.703125 C 50.332031 21.605469 50.617188 21.6875 50.617188 21.953125 C 50.613281 23.738281 50.570312 25.53125 50.566406 27.320312 C 50.566406 27.359375 50.558594 27.398438 50.542969 27.433594 C 50.589844 27.601562 50.496094 27.8125 50.261719 27.816406 C 48.902344 27.824219 47.535156 27.941406 46.175781 27.925781 C 44.71875 27.90625 43.273438 27.578125 41.820312 27.738281 C 41.734375 27.808594 41.613281 27.839844 41.480469 27.777344 C 39.421875 26.75 39.023438 24.105469 36.964844 23.105469 C 36.949219 23.09375 36.933594 23.082031 36.917969 23.074219 C 36.796875 23.050781 36.695312 22.957031 36.714844 22.796875 C 37.046875 19.988281 36.976562 17.167969 37.019531 14.347656 C 37.019531 14.21875 37.089844 14.136719 37.179688 14.09375 C 37.203125 14.054688 37.230469 14.019531 37.269531 13.988281 C 37.636719 13.71875 37.996094 13.394531 38.390625 13.164062 C 39.382812 12.578125 40.253906 11.828125 41.28125 11.257812 C 41.347656 11.222656 41.410156 11.210938 41.46875 11.21875 C 41.472656 11.21875 41.480469 11.21875 41.484375 11.21875 C 46.0625 11.214844 50.589844 11.171875 55.117188 11.261719 C 54.953125 9.363281 54.660156 7.496094 54.128906 5.664062 C 52.9375 5.417969 51.742188 5.582031 50.535156 5.597656 C 49.378906 5.609375 48.21875 5.652344 47.066406 5.652344 C 44.578125 5.652344 39.65625 5.652344 39.65625 5.652344 C 39.632812 5.652344 39.605469 5.648438 39.582031 5.644531 C 38.0625 6.847656 36.722656 8.214844 35.382812 9.601562 C 34.136719 10.894531 32.855469 12.207031 32.046875 13.808594 C 32.027344 17.410156 31.613281 20.996094 31.589844 24.601562 C 32.785156 24.957031 33.664062 26.3125 34.339844 27.238281 C 35.503906 28.839844 36.605469 30.542969 38.046875 31.929688 C 38.054688 31.9375 38.058594 31.945312 38.066406 31.949219 C 40.402344 32.039062 42.699219 32.484375 45.03125 32.628906 C 47.316406 32.769531 49.652344 32.75 51.9375 32.636719 C 51.980469 32.632812 52.015625 32.640625 52.050781 32.652344 C 52.054688 32.648438 52.058594 32.648438 52.058594 32.644531 C 53.613281 32.074219 54.769531 30.84375 56.253906 30.140625 Z M 56.464844 9.746094 C 56.476562 9.691406 56.503906 9.648438 56.53125 9.617188 C 56.382812 7.90625 56.125 6.21875 55.6875 4.558594 C 55.386719 4.925781 55.015625 5.222656 54.753906 5.632812 C 55.230469 7.328125 55.515625 9.054688 55.683594 10.804688 C 56.019531 10.503906 56.355469 10.195312 56.464844 9.746094 Z M 56.890625 15.71875 C 55.136719 15.691406 53.390625 15.855469 51.636719 15.796875 C 49.78125 15.734375 47.957031 15.335938 46.101562 15.34375 C 45.726562 15.625 45.402344 15.96875 45.121094 16.339844 C 46.828125 16.394531 48.503906 16.765625 50.214844 16.792969 C 52.113281 16.820312 54.011719 16.652344 55.910156 16.726562 C 56.195312 16.355469 56.585938 16.074219 56.890625 15.71875 Z M 57.695312 28.519531 C 57.082031 24.433594 57.242188 20.308594 57.261719 16.1875 C 56.992188 16.46875 56.679688 16.714844 56.441406 17.019531 C 56.445312 17.042969 56.441406 17.066406 56.441406 17.089844 C 56.449219 17.117188 56.453125 17.148438 56.453125 17.179688 C 56.449219 21.28125 56.242188 25.398438 56.789062 29.472656 C 57.089844 29.15625 57.386719 28.832031 57.695312 28.519531 Z M 58.300781 28.5 C 58.328125 28.554688 58.335938 28.617188 58.324219 28.675781 C 58.324219 28.839844 58.207031 28.953125 58.074219 28.992188 C 57.675781 29.398438 57.300781 29.824219 56.898438 30.230469 C 56.917969 30.363281 56.851562 30.46875 56.761719 30.53125 C 56.738281 30.5625 56.703125 30.585938 56.660156 30.609375 C 55.078125 31.324219 53.867188 32.617188 52.222656 33.222656 C 52.140625 33.25 52.070312 33.246094 52.015625 33.21875 C 51.988281 33.226562 51.964844 33.230469 51.9375 33.230469 C 49.535156 33.351562 47.046875 33.40625 44.652344 33.195312 C 42.375 32.996094 40.121094 32.597656 37.832031 32.535156 C 37.652344 32.53125 37.558594 32.40625 37.539062 32.273438 C 36.347656 31.105469 35.363281 29.714844 34.402344 28.363281 C 33.660156 27.316406 32.609375 25.378906 31.203125 25.121094 C 31.011719 25.085938 30.957031 24.925781 30.996094 24.78125 C 30.988281 24.753906 30.980469 24.71875 30.980469 24.683594 C 30.988281 22.875 31.097656 21.066406 31.203125 19.257812 C 31.265625 18.257812 31.257812 17.261719 31.273438 16.261719 C 31.289062 15.417969 31.195312 14.390625 31.46875 13.601562 C 32.03125 12.015625 33.582031 10.597656 34.730469 9.410156 C 36.15625 7.933594 37.570312 6.46875 39.1875 5.191406 C 39.253906 5.140625 39.324219 5.121094 39.390625 5.121094 C 39.402344 5.09375 39.421875 5.070312 39.441406 5.042969 C 39.898438 4.542969 40.308594 4.003906 40.761719 3.503906 C 40.878906 3.375 41.027344 3.386719 41.132812 3.464844 C 43.75 3.464844 46.28125 3.464844 48.878906 3.464844 C 50.125 3.464844 51.378906 3.445312 52.625 3.394531 C 53.667969 3.351562 54.695312 3.273438 55.722656 3.488281 C 55.757812 3.492188 55.789062 3.507812 55.816406 3.523438 C 55.933594 3.527344 56.046875 3.589844 56.089844 3.734375 C 56.683594 5.742188 57 7.792969 57.164062 9.875 C 57.175781 10.027344 57.085938 10.121094 56.972656 10.148438 C 56.722656 10.753906 56.164062 11.121094 55.71875 11.601562 C 55.703125 11.644531 55.671875 11.679688 55.636719 11.703125 C 55.589844 11.796875 55.5 11.867188 55.363281 11.863281 C 50.757812 11.769531 46.175781 11.8125 41.515625 11.8125 C 40.65625 12.296875 39.839844 12.847656 39.039062 13.425781 C 39.015625 15.964844 39.046875 18.507812 38.761719 21.035156 C 40.722656 22.039062 41.175781 24.511719 43.046875 25.574219 C 44.457031 25.414062 45.8125 25.714844 47.226562 25.730469 C 48.140625 25.742188 49.054688 25.707031 49.96875 25.671875 C 49.984375 24.546875 50 23.425781 50.007812 22.300781 C 48.09375 22.3125 46.1875 22.070312 44.273438 22.050781 C 44.054688 22.050781 43.957031 21.859375 43.984375 21.695312 C 43.976562 21.667969 43.96875 21.636719 43.96875 21.605469 C 43.980469 20.097656 44.109375 18.59375 44.214844 17.09375 C 44.1875 17.039062 44.175781 16.976562 44.183594 16.902344 C 44.199219 16.8125 44.210938 16.722656 44.226562 16.632812 C 44.238281 16.542969 44.273438 16.464844 44.332031 16.410156 C 44.707031 15.847656 45.152344 15.339844 45.679688 14.921875 C 45.71875 14.832031 45.796875 14.765625 45.910156 14.75 C 45.972656 14.722656 46.035156 14.722656 46.089844 14.746094 C 47.953125 14.738281 49.777344 15.171875 51.636719 15.199219 C 53.617188 15.230469 55.589844 15.046875 57.570312 15.144531 C 57.785156 15.152344 57.878906 15.335938 57.859375 15.5 C 57.867188 15.527344 57.875 15.554688 57.875 15.589844 C 57.867188 19.894531 57.644531 24.222656 58.300781 28.5 " fill-opacity="1" fill-rule="nonzero"/></g><path fill="#000000" d="M 54.792969 24.683594 C 54.855469 25.835938 54.910156 26.882812 54.878906 27.636719 C 54.859375 28.390625 54.824219 28.859375 54.777344 28.859375 C 54.671875 28.859375 54.613281 26.988281 54.449219 24.707031 C 54.257812 22.425781 54.011719 20.578125 54.121094 20.558594 C 54.167969 20.550781 54.273438 21.007812 54.410156 21.753906 C 54.566406 22.496094 54.675781 23.535156 54.792969 24.683594 " fill-opacity="1" fill-rule="nonzero"/><path fill="#000000" d="M 47.496094 10.179688 C 50.789062 10.191406 53.460938 10.277344 53.460938 10.371094 C 53.457031 10.464844 50.789062 10.527344 47.496094 10.515625 C 44.203125 10.5 41.535156 10.414062 41.535156 10.324219 C 41.535156 10.230469 44.203125 10.164062 47.496094 10.179688 " fill-opacity="1" fill-rule="nonzero"/><path fill="#000000" d="M 49.070312 31.871094 C 50.023438 31.902344 50.617188 31.941406 50.617188 31.988281 C 50.617188 32.035156 50.023438 32.078125 49.070312 32.105469 C 48.109375 32.136719 46.785156 32.144531 45.320312 32.0625 C 43.855469 31.972656 42.535156 31.78125 41.59375 31.5625 C 41.355469 31.519531 41.152344 31.449219 40.96875 31.398438 C 40.785156 31.347656 40.628906 31.296875 40.503906 31.257812 C 40.246094 31.175781 40.109375 31.117188 40.113281 31.09375 C 40.121094 31.074219 40.269531 31.085938 40.535156 31.132812 C 40.667969 31.152344 40.828125 31.179688 41.015625 31.21875 C 41.199219 31.253906 41.414062 31.304688 41.648438 31.328125 C 42.582031 31.484375 43.890625 31.636719 45.339844 31.730469 C 46.792969 31.808594 48.113281 31.835938 49.070312 31.871094 " fill-opacity="1" fill-rule="nonzero"/><path fill="#000000" d="M 38.492188 7.886719 C 38.527344 7.910156 38.339844 8.261719 37.972656 8.792969 C 37.601562 9.316406 37.03125 10.007812 36.34375 10.710938 C 35.65625 11.410156 34.996094 12.007812 34.507812 12.429688 C 34.019531 12.847656 33.703125 13.089844 33.671875 13.054688 C 33.636719 13.023438 33.894531 12.71875 34.339844 12.257812 C 34.785156 11.792969 35.414062 11.171875 36.097656 10.480469 C 36.777344 9.78125 37.367188 9.128906 37.78125 8.648438 C 38.191406 8.160156 38.449219 7.859375 38.492188 7.886719 " fill-opacity="1" fill-rule="nonzero"/><path fill="#000000" d="M 37.871094 30.253906 C 37.929688 30.433594 37.957031 30.539062 37.933594 30.546875 C 37.910156 30.558594 37.847656 30.472656 37.75 30.308594 C 37.699219 30.226562 37.644531 30.125 37.578125 30.007812 C 37.515625 29.886719 37.449219 29.75 37.355469 29.613281 C 37.015625 29.042969 36.488281 28.273438 35.875 27.449219 C 35.25 26.628906 34.679688 25.890625 34.289062 25.332031 C 33.898438 24.777344 33.683594 24.410156 33.722656 24.386719 C 33.761719 24.359375 34.042969 24.671875 34.480469 25.1875 C 34.917969 25.707031 35.523438 26.425781 36.152344 27.25 C 36.773438 28.085938 37.273438 28.886719 37.570312 29.511719 C 37.652344 29.660156 37.707031 29.804688 37.753906 29.929688 C 37.800781 30.054688 37.839844 30.164062 37.871094 30.253906 " fill-opacity="1" fill-rule="nonzero"/><path fill="#000000" d="M 32.757812 14.546875 C 32.847656 14.546875 32.941406 16.558594 32.921875 19.046875 C 32.886719 20.292969 32.855469 21.421875 32.757812 22.234375 C 32.675781 23.042969 32.601562 23.542969 32.554688 23.542969 C 32.449219 23.53125 32.546875 21.523438 32.578125 19.042969 C 32.597656 16.5625 32.660156 14.546875 32.757812 14.546875 " fill-opacity="1" fill-rule="nonzero"/><g fill="#0057ff" fill-opacity="0.302"><g transform="translate(60.29895, 31.850489)"><g><path d="M 5.1875 -0.90625 C 5.113281 -0.75 5.007812 -0.613281 4.875 -0.5 C 4.570312 -0.164062 4.195312 0 3.75 0 L 2.328125 0 C 1.878906 0 1.5 -0.164062 1.1875 -0.5 C 0.875 -0.832031 0.71875 -1.234375 0.71875 -1.703125 L 0.71875 -12.421875 L 2.6875 -12.421875 L 2.6875 -1.875 L 4.203125 -1.875 L 4.203125 -12.421875 L 6.171875 -12.421875 L 6.171875 -1.875 L 7.6875 -1.875 L 7.6875 -12.421875 L 9.65625 -12.421875 L 9.65625 -1.703125 C 9.65625 -1.222656 9.492188 -0.816406 9.171875 -0.484375 C 8.859375 -0.160156 8.484375 0 8.046875 0 L 6.609375 0 C 6.171875 0 5.789062 -0.164062 5.46875 -0.5 C 5.351562 -0.632812 5.257812 -0.769531 5.1875 -0.90625 Z M 5.1875 -0.90625 "/></g></g></g><g fill="#0057ff" fill-opacity="0.302"><g transform="translate(70.668666, 31.850489)"><g><path d="M 5.453125 -10.546875 L 2.6875 -10.546875 L 2.6875 -7.203125 L 5.453125 -8.640625 L 5.453125 -6.4375 L 2.6875 -5 L 2.6875 -1.875 L 5.453125 -1.875 L 5.453125 0 L 0.71875 0 L 0.71875 -10.71875 C 0.71875 -11.195312 0.875 -11.597656 1.1875 -11.921875 C 1.5 -12.253906 1.878906 -12.421875 2.328125 -12.421875 L 5.453125 -12.421875 Z M 5.453125 -10.546875 "/></g></g></g><g fill="#0057ff" fill-opacity="0.302"><g transform="translate(76.658069, 31.850489)"><g><path d="M 0.71875 0 L 0.71875 -12.421875 L 2.6875 -12.421875 L 2.6875 0 Z M 0.71875 0 "/></g></g></g><g fill="#0057ff" fill-opacity="0.302"><g transform="translate(80.055045, 31.850489)"><g><path d="M 0.71875 -10.71875 C 0.71875 -11.207031 0.875 -11.613281 1.1875 -11.9375 C 1.5 -12.257812 1.878906 -12.421875 2.328125 -12.421875 L 4.5625 -12.421875 C 5 -12.421875 5.375 -12.253906 5.6875 -11.921875 C 6.007812 -11.597656 6.171875 -11.195312 6.171875 -10.71875 L 6.171875 -10.1875 L 4.203125 -9.203125 L 4.203125 -10.546875 L 2.6875 -10.546875 L 2.6875 -7.234375 L 6.171875 -9.03125 L 6.171875 -1.703125 C 6.171875 -1.234375 6.007812 -0.832031 5.6875 -0.5 C 5.375 -0.164062 5 0 4.5625 0 L 2.328125 0 C 1.878906 0 1.5 -0.160156 1.1875 -0.484375 C 0.875 -0.816406 0.71875 -1.222656 0.71875 -1.703125 L 0.71875 -2.859375 L 2.6875 -3.84375 L 2.6875 -1.875 L 4.203125 -1.875 L 4.203125 -5.8125 L 0.71875 -4.015625 Z M 0.71875 -10.71875 "/></g></g></g><g fill="#0057ff" fill-opacity="0.302"><g transform="translate(86.938389, 31.850489)"><g><path d="M 0.71875 0 L 0.71875 -12.421875 L 4.5625 -12.421875 C 5 -12.421875 5.375 -12.253906 5.6875 -11.921875 C 6.007812 -11.597656 6.171875 -11.195312 6.171875 -10.71875 L 6.171875 -8.046875 C 6.171875 -7.648438 6.097656 -7.316406 5.953125 -7.046875 C 5.859375 -6.835938 5.707031 -6.664062 5.5 -6.53125 L 6.171875 -6.53125 L 6.171875 -1.703125 C 6.171875 -1.222656 6.007812 -0.816406 5.6875 -0.484375 C 5.375 -0.160156 5 0 4.5625 0 Z M 4.203125 -8.046875 L 4.203125 -10.546875 L 2.6875 -10.546875 L 2.6875 -7.234375 Z M 4.203125 -5.828125 L 2.6875 -5.046875 L 2.6875 -1.875 L 4.203125 -1.875 Z M 4.203125 -5.828125 "/></g></g></g><g fill="#0057ff" fill-opacity="0.302"><g transform="translate(93.821733, 31.850489)"><g><path d="M 5.453125 -10.546875 L 2.6875 -10.546875 L 2.6875 -7.203125 L 5.453125 -8.640625 L 5.453125 -6.4375 L 2.6875 -5 L 2.6875 -1.875 L 5.453125 -1.875 L 5.453125 0 L 0.71875 0 L 0.71875 -10.71875 C 0.71875 -11.195312 0.875 -11.597656 1.1875 -11.921875 C 1.5 -12.253906 1.878906 -12.421875 2.328125 -12.421875 L 5.453125 -12.421875 Z M 5.453125 -10.546875 "/></g></g></g><g fill="#0057ff" fill-opacity="0.302"><g transform="translate(99.811136, 31.850489)"><g><path d="M 4.203125 -3.390625 L 6.171875 -4.375 L 6.171875 -1.703125 C 6.171875 -1.222656 6.007812 -0.816406 5.6875 -0.484375 C 5.375 -0.160156 5 0 4.5625 0 L 2.328125 0 C 1.878906 0 1.5 -0.164062 1.1875 -0.5 C 0.875 -0.832031 0.71875 -1.234375 0.71875 -1.703125 L 0.71875 -10.71875 C 0.71875 -11.195312 0.875 -11.597656 1.1875 -11.921875 C 1.5 -12.253906 1.878906 -12.421875 2.328125 -12.421875 L 4.5625 -12.421875 C 5 -12.421875 5.375 -12.253906 5.6875 -11.921875 C 6.007812 -11.597656 6.171875 -11.195312 6.171875 -10.71875 L 6.171875 -9.65625 L 4.203125 -8.671875 L 4.203125 -10.546875 L 2.6875 -10.546875 L 2.6875 -1.875 L 4.203125 -1.875 Z M 4.203125 -3.390625 "/></g></g></g><g fill="#0057ff" fill-opacity="0.302"><g transform="translate(106.515693, 31.850489)"><g><path d="M 7.59375 0 L 5.5 0 L 3.515625 -5.078125 L 2.6875 -3.34375 L 2.6875 0 L 0.71875 0 L 0.71875 -12.421875 L 2.6875 -12.421875 L 2.6875 -7.71875 L 4.796875 -12.421875 L 6.9375 -12.421875 L 4.59375 -7.375 Z M 7.59375 0 "/></g></g></g><g fill="#0057ff" fill-opacity="0.302"><g transform="translate(113.756615, 31.850489)"><g><path d="M 6.171875 0 L 4.203125 0 L 4.203125 -4.46875 L 0.71875 -2.6875 L 0.71875 -12.421875 L 2.6875 -12.421875 L 2.6875 -5.859375 L 4.203125 -6.65625 L 4.203125 -9.03125 L 6.171875 -10.015625 Z M 6.171875 0 "/></g></g></g><g fill="#0057ff" fill-opacity="0.502"><g transform="translate(59.709869, 31.406585)"><g><path d="M 5.1875 -0.90625 C 5.113281 -0.75 5.007812 -0.613281 4.875 -0.5 C 4.570312 -0.164062 4.195312 0 3.75 0 L 2.328125 0 C 1.878906 0 1.5 -0.164062 1.1875 -0.5 C 0.875 -0.832031 0.71875 -1.234375 0.71875 -1.703125 L 0.71875 -12.421875 L 2.6875 -12.421875 L 2.6875 -1.875 L 4.203125 -1.875 L 4.203125 -12.421875 L 6.171875 -12.421875 L 6.171875 -1.875 L 7.6875 -1.875 L 7.6875 -12.421875 L 9.65625 -12.421875 L 9.65625 -1.703125 C 9.65625 -1.222656 9.492188 -0.816406 9.171875 -0.484375 C 8.859375 -0.160156 8.484375 0 8.046875 0 L 6.609375 0 C 6.171875 0 5.789062 -0.164062 5.46875 -0.5 C 5.351562 -0.632812 5.257812 -0.769531 5.1875 -0.90625 Z M 5.1875 -0.90625 "/></g></g></g><g fill="#0057ff" fill-opacity="0.502"><g transform="translate(70.079585, 31.406585)"><g><path d="M 5.453125 -10.546875 L 2.6875 -10.546875 L 2.6875 -7.203125 L 5.453125 -8.640625 L 5.453125 -6.4375 L 2.6875 -5 L 2.6875 -1.875 L 5.453125 -1.875 L 5.453125 0 L 0.71875 0 L 0.71875 -10.71875 C 0.71875 -11.195312 0.875 -11.597656 1.1875 -11.921875 C 1.5 -12.253906 1.878906 -12.421875 2.328125 -12.421875 L 5.453125 -12.421875 Z M 5.453125 -10.546875 "/></g></g></g><g fill="#0057ff" fill-opacity="0.502"><g transform="translate(76.068988, 31.406585)"><g><path d="M 0.71875 0 L 0.71875 -12.421875 L 2.6875 -12.421875 L 2.6875 0 Z M 0.71875 0 "/></g></g></g><g fill="#0057ff" fill-opacity="0.502"><g transform="translate(79.465964, 31.406585)"><g><path d="M 0.71875 -10.71875 C 0.71875 -11.207031 0.875 -11.613281 1.1875 -11.9375 C 1.5 -12.257812 1.878906 -12.421875 2.328125 -12.421875 L 4.5625 -12.421875 C 5 -12.421875 5.375 -12.253906 5.6875 -11.921875 C 6.007812 -11.597656 6.171875 -11.195312 6.171875 -10.71875 L 6.171875 -10.1875 L 4.203125 -9.203125 L 4.203125 -10.546875 L 2.6875 -10.546875 L 2.6875 -7.234375 L 6.171875 -9.03125 L 6.171875 -1.703125 C 6.171875 -1.234375 6.007812 -0.832031 5.6875 -0.5 C 5.375 -0.164062 5 0 4.5625 0 L 2.328125 0 C 1.878906 0 1.5 -0.160156 1.1875 -0.484375 C 0.875 -0.816406 0.71875 -1.222656 0.71875 -1.703125 L 0.71875 -2.859375 L 2.6875 -3.84375 L 2.6875 -1.875 L 4.203125 -1.875 L 4.203125 -5.8125 L 0.71875 -4.015625 Z M 0.71875 -10.71875 "/></g></g></g><g fill="#0057ff" fill-opacity="0.502"><g transform="translate(86.349308, 31.406585)"><g><path d="M 0.71875 0 L 0.71875 -12.421875 L 4.5625 -12.421875 C 5 -12.421875 5.375 -12.253906 5.6875 -11.921875 C 6.007812 -11.597656 6.171875 -11.195312 6.171875 -10.71875 L 6.171875 -8.046875 C 6.171875 -7.648438 6.097656 -7.316406 5.953125 -7.046875 C 5.859375 -6.835938 5.707031 -6.664062 5.5 -6.53125 L 6.171875 -6.53125 L 6.171875 -1.703125 C 6.171875 -1.222656 6.007812 -0.816406 5.6875 -0.484375 C 5.375 -0.160156 5 0 4.5625 0 Z M 4.203125 -8.046875 L 4.203125 -10.546875 L 2.6875 -10.546875 L 2.6875 -7.234375 Z M 4.203125 -5.828125 L 2.6875 -5.046875 L 2.6875 -1.875 L 4.203125 -1.875 Z M 4.203125 -5.828125 "/></g></g></g><g fill="#0057ff" fill-opacity="0.502"><g transform="translate(93.232652, 31.406585)"><g><path d="M 5.453125 -10.546875 L 2.6875 -10.546875 L 2.6875 -7.203125 L 5.453125 -8.640625 L 5.453125 -6.4375 L 2.6875 -5 L 2.6875 -1.875 L 5.453125 -1.875 L 5.453125 0 L 0.71875 0 L 0.71875 -10.71875 C 0.71875 -11.195312 0.875 -11.597656 1.1875 -11.921875 C 1.5 -12.253906 1.878906 -12.421875 2.328125 -12.421875 L 5.453125 -12.421875 Z M 5.453125 -10.546875 "/></g></g></g><g fill="#0057ff" fill-opacity="0.502"><g transform="translate(99.222056, 31.406585)"><g><path d="M 4.203125 -3.390625 L 6.171875 -4.375 L 6.171875 -1.703125 C 6.171875 -1.222656 6.007812 -0.816406 5.6875 -0.484375 C 5.375 -0.160156 5 0 4.5625 0 L 2.328125 0 C 1.878906 0 1.5 -0.164062 1.1875 -0.5 C 0.875 -0.832031 0.71875 -1.234375 0.71875 -1.703125 L 0.71875 -10.71875 C 0.71875 -11.195312 0.875 -11.597656 1.1875 -11.921875 C 1.5 -12.253906 1.878906 -12.421875 2.328125 -12.421875 L 4.5625 -12.421875 C 5 -12.421875 5.375 -12.253906 5.6875 -11.921875 C 6.007812 -11.597656 6.171875 -11.195312 6.171875 -10.71875 L 6.171875 -9.65625 L 4.203125 -8.671875 L 4.203125 -10.546875 L 2.6875 -10.546875 L 2.6875 -1.875 L 4.203125 -1.875 Z M 4.203125 -3.390625 "/></g></g></g><g fill="#0057ff" fill-opacity="0.502"><g transform="translate(105.926612, 31.406585)"><g><path d="M 7.59375 0 L 5.5 0 L 3.515625 -5.078125 L 2.6875 -3.34375 L 2.6875 0 L 0.71875 0 L 0.71875 -12.421875 L 2.6875 -12.421875 L 2.6875 -7.71875 L 4.796875 -12.421875 L 6.9375 -12.421875 L 4.59375 -7.375 Z M 7.59375 0 "/></g></g></g><g fill="#0057ff" fill-opacity="0.502"><g transform="translate(113.167535, 31.406585)"><g><path d="M 6.171875 0 L 4.203125 0 L 4.203125 -4.46875 L 0.71875 -2.6875 L 0.71875 -12.421875 L 2.6875 -12.421875 L 2.6875 -5.859375 L 4.203125 -6.65625 L 4.203125 -9.03125 L 6.171875 -10.015625 Z M 6.171875 0 "/></g></g></g><g fill="#1c61a5" fill-opacity="1"><g transform="translate(59.120788, 30.962681)"><g><path d="M 5.1875 -0.90625 C 5.113281 -0.75 5.007812 -0.613281 4.875 -0.5 C 4.570312 -0.164062 4.195312 0 3.75 0 L 2.328125 0 C 1.878906 0 1.5 -0.164062 1.1875 -0.5 C 0.875 -0.832031 0.71875 -1.234375 0.71875 -1.703125 L 0.71875 -12.421875 L 2.6875 -12.421875 L 2.6875 -1.875 L 4.203125 -1.875 L 4.203125 -12.421875 L 6.171875 -12.421875 L 6.171875 -1.875 L 7.6875 -1.875 L 7.6875 -12.421875 L 9.65625 -12.421875 L 9.65625 -1.703125 C 9.65625 -1.222656 9.492188 -0.816406 9.171875 -0.484375 C 8.859375 -0.160156 8.484375 0 8.046875 0 L 6.609375 0 C 6.171875 0 5.789062 -0.164062 5.46875 -0.5 C 5.351562 -0.632812 5.257812 -0.769531 5.1875 -0.90625 Z M 5.1875 -0.90625 "/></g></g></g><g fill="#1c61a5" fill-opacity="1"><g transform="translate(69.490504, 30.962681)"><g><path d="M 5.453125 -10.546875 L 2.6875 -10.546875 L 2.6875 -7.203125 L 5.453125 -8.640625 L 5.453125 -6.4375 L 2.6875 -5 L 2.6875 -1.875 L 5.453125 -1.875 L 5.453125 0 L 0.71875 0 L 0.71875 -10.71875 C 0.71875 -11.195312 0.875 -11.597656 1.1875 -11.921875 C 1.5 -12.253906 1.878906 -12.421875 2.328125 -12.421875 L 5.453125 -12.421875 Z M 5.453125 -10.546875 "/></g></g></g><g fill="#1c61a5" fill-opacity="1"><g transform="translate(75.479908, 30.962681)"><g><path d="M 0.71875 0 L 0.71875 -12.421875 L 2.6875 -12.421875 L 2.6875 0 Z M 0.71875 0 "/></g></g></g><g fill="#1c61a5" fill-opacity="1"><g transform="translate(78.876883, 30.962681)"><g><path d="M 0.71875 -10.71875 C 0.71875 -11.207031 0.875 -11.613281 1.1875 -11.9375 C 1.5 -12.257812 1.878906 -12.421875 2.328125 -12.421875 L 4.5625 -12.421875 C 5 -12.421875 5.375 -12.253906 5.6875 -11.921875 C 6.007812 -11.597656 6.171875 -11.195312 6.171875 -10.71875 L 6.171875 -10.1875 L 4.203125 -9.203125 L 4.203125 -10.546875 L 2.6875 -10.546875 L 2.6875 -7.234375 L 6.171875 -9.03125 L 6.171875 -1.703125 C 6.171875 -1.234375 6.007812 -0.832031 5.6875 -0.5 C 5.375 -0.164062 5 0 4.5625 0 L 2.328125 0 C 1.878906 0 1.5 -0.160156 1.1875 -0.484375 C 0.875 -0.816406 0.71875 -1.222656 0.71875 -1.703125 L 0.71875 -2.859375 L 2.6875 -3.84375 L 2.6875 -1.875 L 4.203125 -1.875 L 4.203125 -5.8125 L 0.71875 -4.015625 Z M 0.71875 -10.71875 "/></g></g></g><g fill="#1c61a5" fill-opacity="1"><g transform="translate(85.760227, 30.962681)"><g><path d="M 0.71875 0 L 0.71875 -12.421875 L 4.5625 -12.421875 C 5 -12.421875 5.375 -12.253906 5.6875 -11.921875 C 6.007812 -11.597656 6.171875 -11.195312 6.171875 -10.71875 L 6.171875 -8.046875 C 6.171875 -7.648438 6.097656 -7.316406 5.953125 -7.046875 C 5.859375 -6.835938 5.707031 -6.664062 5.5 -6.53125 L 6.171875 -6.53125 L 6.171875 -1.703125 C 6.171875 -1.222656 6.007812 -0.816406 5.6875 -0.484375 C 5.375 -0.160156 5 0 4.5625 0 Z M 4.203125 -8.046875 L 4.203125 -10.546875 L 2.6875 -10.546875 L 2.6875 -7.234375 Z M 4.203125 -5.828125 L 2.6875 -5.046875 L 2.6875 -1.875 L 4.203125 -1.875 Z M 4.203125 -5.828125 "/></g></g></g><g fill="#1c61a5" fill-opacity="1"><g transform="translate(92.643571, 30.962681)"><g><path d="M 5.453125 -10.546875 L 2.6875 -10.546875 L 2.6875 -7.203125 L 5.453125 -8.640625 L 5.453125 -6.4375 L 2.6875 -5 L 2.6875 -1.875 L 5.453125 -1.875 L 5.453125 0 L 0.71875 0 L 0.71875 -10.71875 C 0.71875 -11.195312 0.875 -11.597656 1.1875 -11.921875 C 1.5 -12.253906 1.878906 -12.421875 2.328125 -12.421875 L 5.453125 -12.421875 Z M 5.453125 -10.546875 "/></g></g></g><g fill="#1c61a5" fill-opacity="1"><g transform="translate(98.632975, 30.962681)"><g><path d="M 4.203125 -3.390625 L 6.171875 -4.375 L 6.171875 -1.703125 C 6.171875 -1.222656 6.007812 -0.816406 5.6875 -0.484375 C 5.375 -0.160156 5 0 4.5625 0 L 2.328125 0 C 1.878906 0 1.5 -0.164062 1.1875 -0.5 C 0.875 -0.832031 0.71875 -1.234375 0.71875 -1.703125 L 0.71875 -10.71875 C 0.71875 -11.195312 0.875 -11.597656 1.1875 -11.921875 C 1.5 -12.253906 1.878906 -12.421875 2.328125 -12.421875 L 4.5625 -12.421875 C 5 -12.421875 5.375 -12.253906 5.6875 -11.921875 C 6.007812 -11.597656 6.171875 -11.195312 6.171875 -10.71875 L 6.171875 -9.65625 L 4.203125 -8.671875 L 4.203125 -10.546875 L 2.6875 -10.546875 L 2.6875 -1.875 L 4.203125 -1.875 Z M 4.203125 -3.390625 "/></g></g></g><g fill="#1c61a5" fill-opacity="1"><g transform="translate(105.337532, 30.962681)"><g><path d="M 7.59375 0 L 5.5 0 L 3.515625 -5.078125 L 2.6875 -3.34375 L 2.6875 0 L 0.71875 0 L 0.71875 -12.421875 L 2.6875 -12.421875 L 2.6875 -7.71875 L 4.796875 -12.421875 L 6.9375 -12.421875 L 4.59375 -7.375 Z M 7.59375 0 "/></g></g></g><g fill="#1c61a5" fill-opacity="1"><g transform="translate(112.578454, 30.962681)"><g><path d="M 6.171875 0 L 4.203125 0 L 4.203125 -4.46875 L 0.71875 -2.6875 L 0.71875 -12.421875 L 2.6875 -12.421875 L 2.6875 -5.859375 L 4.203125 -6.65625 L 4.203125 -9.03125 L 6.171875 -10.015625 Z M 6.171875 0 "/></g></g></g><g fill="#0057ff" fill-opacity="0.302"><g transform="translate(60.038255, 17.029537)"><g><path d="M 5.453125 -10.546875 L 2.6875 -10.546875 L 2.6875 -7.203125 L 5.453125 -8.640625 L 5.453125 -6.4375 L 2.6875 -5 L 2.6875 -1.875 L 5.453125 -1.875 L 5.453125 0 L 0.71875 0 L 0.71875 -10.71875 C 0.71875 -11.195312 0.875 -11.597656 1.1875 -11.921875 C 1.5 -12.253906 1.878906 -12.421875 2.328125 -12.421875 L 5.453125 -12.421875 Z M 5.453125 -10.546875 "/></g></g></g><g fill="#0057ff" fill-opacity="0.302"><g transform="translate(66.027658, 17.029537)"><g><path d="M 0.71875 0 L 0.71875 -10.71875 C 0.71875 -11.195312 0.875 -11.597656 1.1875 -11.921875 C 1.5 -12.253906 1.878906 -12.421875 2.328125 -12.421875 L 4.5625 -12.421875 C 5 -12.421875 5.375 -12.253906 5.6875 -11.921875 C 6.007812 -11.597656 6.171875 -11.195312 6.171875 -10.71875 L 6.171875 0 L 4.203125 0 L 4.203125 -5.265625 L 2.6875 -4.46875 L 2.6875 0 Z M 2.6875 -6.671875 L 4.203125 -7.46875 L 4.203125 -10.546875 L 2.6875 -10.546875 Z M 2.6875 -6.671875 "/></g></g></g><g fill="#0057ff" fill-opacity="0.302"><g transform="translate(72.911003, 17.029537)"><g><path d="M 6.171875 -12.421875 L 6.171875 -1.703125 C 6.171875 -1.222656 6.007812 -0.816406 5.6875 -0.484375 C 5.375 -0.160156 5 0 4.5625 0 L 2.328125 0 C 1.878906 0 1.5 -0.164062 1.1875 -0.5 C 0.875 -0.832031 0.71875 -1.234375 0.71875 -1.703125 L 0.71875 -12.421875 L 2.6875 -12.421875 L 2.6875 -1.875 L 4.203125 -1.875 L 4.203125 -12.421875 Z M 6.171875 -12.421875 "/></g></g></g><g fill="#0057ff" fill-opacity="0.302"><g transform="translate(79.794347, 17.029537)"><g><path d="M 6.140625 0 L 4.125 0 L 3.09375 -3.703125 L 2.03125 0 L 0.015625 0 L 1.796875 -6.359375 L 0.109375 -12.421875 L 2.125 -12.421875 L 3.09375 -9.046875 L 4.03125 -12.421875 L 6.0625 -12.421875 L 4.359375 -6.359375 Z M 6.140625 0 "/></g></g></g><g fill="#0057ff" fill-opacity="0.502"><g transform="translate(59.449177, 16.585633)"><g><path d="M 5.453125 -10.546875 L 2.6875 -10.546875 L 2.6875 -7.203125 L 5.453125 -8.640625 L 5.453125 -6.4375 L 2.6875 -5 L 2.6875 -1.875 L 5.453125 -1.875 L 5.453125 0 L 0.71875 0 L 0.71875 -10.71875 C 0.71875 -11.195312 0.875 -11.597656 1.1875 -11.921875 C 1.5 -12.253906 1.878906 -12.421875 2.328125 -12.421875 L 5.453125 -12.421875 Z M 5.453125 -10.546875 "/></g></g></g><g fill="#0057ff" fill-opacity="0.502"><g transform="translate(65.43858, 16.585633)"><g><path d="M 0.71875 0 L 0.71875 -10.71875 C 0.71875 -11.195312 0.875 -11.597656 1.1875 -11.921875 C 1.5 -12.253906 1.878906 -12.421875 2.328125 -12.421875 L 4.5625 -12.421875 C 5 -12.421875 5.375 -12.253906 5.6875 -11.921875 C 6.007812 -11.597656 6.171875 -11.195312 6.171875 -10.71875 L 6.171875 0 L 4.203125 0 L 4.203125 -5.265625 L 2.6875 -4.46875 L 2.6875 0 Z M 2.6875 -6.671875 L 4.203125 -7.46875 L 4.203125 -10.546875 L 2.6875 -10.546875 Z M 2.6875 -6.671875 "/></g></g></g><g fill="#0057ff" fill-opacity="0.502"><g transform="translate(72.321924, 16.585633)"><g><path d="M 6.171875 -12.421875 L 6.171875 -1.703125 C 6.171875 -1.222656 6.007812 -0.816406 5.6875 -0.484375 C 5.375 -0.160156 5 0 4.5625 0 L 2.328125 0 C 1.878906 0 1.5 -0.164062 1.1875 -0.5 C 0.875 -0.832031 0.71875 -1.234375 0.71875 -1.703125 L 0.71875 -12.421875 L 2.6875 -12.421875 L 2.6875 -1.875 L 4.203125 -1.875 L 4.203125 -12.421875 Z M 6.171875 -12.421875 "/></g></g></g><g fill="#0057ff" fill-opacity="0.502"><g transform="translate(79.205269, 16.585633)"><g><path d="M 6.140625 0 L 4.125 0 L 3.09375 -3.703125 L 2.03125 0 L 0.015625 0 L 1.796875 -6.359375 L 0.109375 -12.421875 L 2.125 -12.421875 L 3.09375 -9.046875 L 4.03125 -12.421875 L 6.0625 -12.421875 L 4.359375 -6.359375 Z M 6.140625 0 "/></g></g></g><g fill="#1c61a5" fill-opacity="1"><g transform="translate(58.860095, 16.14173)"><g><path d="M 5.453125 -10.546875 L 2.6875 -10.546875 L 2.6875 -7.203125 L 5.453125 -8.640625 L 5.453125 -6.4375 L 2.6875 -5 L 2.6875 -1.875 L 5.453125 -1.875 L 5.453125 0 L 0.71875 0 L 0.71875 -10.71875 C 0.71875 -11.195312 0.875 -11.597656 1.1875 -11.921875 C 1.5 -12.253906 1.878906 -12.421875 2.328125 -12.421875 L 5.453125 -12.421875 Z M 5.453125 -10.546875 "/></g></g></g><g fill="#1c61a5" fill-opacity="1"><g transform="translate(64.849499, 16.14173)"><g><path d="M 0.71875 0 L 0.71875 -10.71875 C 0.71875 -11.195312 0.875 -11.597656 1.1875 -11.921875 C 1.5 -12.253906 1.878906 -12.421875 2.328125 -12.421875 L 4.5625 -12.421875 C 5 -12.421875 5.375 -12.253906 5.6875 -11.921875 C 6.007812 -11.597656 6.171875 -11.195312 6.171875 -10.71875 L 6.171875 0 L 4.203125 0 L 4.203125 -5.265625 L 2.6875 -4.46875 L 2.6875 0 Z M 2.6875 -6.671875 L 4.203125 -7.46875 L 4.203125 -10.546875 L 2.6875 -10.546875 Z M 2.6875 -6.671875 "/></g></g></g><g fill="#1c61a5" fill-opacity="1"><g transform="translate(71.732843, 16.14173)"><g><path d="M 6.171875 -12.421875 L 6.171875 -1.703125 C 6.171875 -1.222656 6.007812 -0.816406 5.6875 -0.484375 C 5.375 -0.160156 5 0 4.5625 0 L 2.328125 0 C 1.878906 0 1.5 -0.164062 1.1875 -0.5 C 0.875 -0.832031 0.71875 -1.234375 0.71875 -1.703125 L 0.71875 -12.421875 L 2.6875 -12.421875 L 2.6875 -1.875 L 4.203125 -1.875 L 4.203125 -12.421875 Z M 6.171875 -12.421875 "/></g></g></g><g fill="#1c61a5" fill-opacity="1"><g transform="translate(78.616187, 16.14173)"><g><path d="M 6.140625 0 L 4.125 0 L 3.09375 -3.703125 L 2.03125 0 L 0.015625 0 L 1.796875 -6.359375 L 0.109375 -12.421875 L 2.125 -12.421875 L 3.09375 -9.046875 L 4.03125 -12.421875 L 6.0625 -12.421875 L 4.359375 -6.359375 Z M 6.140625 0 "/></g></g></g></svg>